HIERARCHY
ROOT Hips
{
	OFFSET 55.310501 45.591206 43.872097
	CHANNELS 6 Xposition Yposition Zposition Zrotation Xrotation Yrotation
	JOINT Chest
	{
		OFFSET -0.153500 1.163101 7.852402
		CHANNELS 6 Xposition Yposition Zposition Zrotation Xrotation Yrotation
		JOINT Chest2
		{
			OFFSET 0.000000 0.000000 3.343300
			CHANNELS 6 Xposition Yposition Zposition Zrotation Xrotation Yrotation
			JOINT Neck
			{
				OFFSET 0.000000 0.000000 7.785500
				CHANNELS 6 Xposition Yposition Zposition Zrotation Xrotation Yrotation
				JOINT Head
				{
					OFFSET 0.000000 0.000000 2.173901
					CHANNELS 6 Xposition Yposition Zposition Zrotation Xrotation Yrotation
					End Site
					{
						OFFSET 0.000000 0.000000 10.528198
					}
				}
			}
			JOINT LeftCollar
			{
				OFFSET 2.676300 -1.652401 4.938301
				CHANNELS 6 Xposition Yposition Zposition Zrotation Xrotation Yrotation
				JOINT LeftShoulder
				{
					OFFSET 4.299000 0.000000 0.000000
					CHANNELS 6 Xposition Yposition Zposition Zrotation Xrotation Yrotation
					JOINT LeftElbow
					{
						OFFSET 0.000000 0.000000 -10.245102
						CHANNELS 6 Xposition Yposition Zposition Zrotation Xrotation Yrotation
						JOINT LeftWrist
						{
							OFFSET 0.000000 0.000000 -12.703300
							CHANNELS 6 Xposition Yposition Zposition Zrotation Xrotation Yrotation
							End Site
							{
								OFFSET 0.000000 0.000000 -2.173901
							}
						}
					}
				}
			}
			JOINT RightCollar
			{
				OFFSET -2.534599 -1.686401 5.195000
				CHANNELS 6 Xposition Yposition Zposition Zrotation Xrotation Yrotation
				JOINT RightShoulder
				{
					OFFSET -4.144100 0.000000 0.000000
					CHANNELS 6 Xposition Yposition Zposition Zrotation Xrotation Yrotation
					JOINT RightElbow
					{
						OFFSET 0.000000 0.000000 -10.116501
						CHANNELS 6 Xposition Yposition Zposition Zrotation Xrotation Yrotation
						JOINT RightWrist
						{
							OFFSET 0.000000 0.000000 -12.937801
							CHANNELS 6 Xposition Yposition Zposition Zrotation Xrotation Yrotation
							End Site
							{
								OFFSET 0.000000 0.000000 -2.173901
							}
						}
					}
				}
			}
		}
	}
	JOINT LeftHip
	{
		OFFSET 2.175598 0.064499 -2.662899
		CHANNELS 6 Xposition Yposition Zposition Zrotation Xrotation Yrotation
		JOINT LeftKnee
		{
			OFFSET 0.000000 -0.000004 -18.585800
			CHANNELS 6 Xposition Yposition Zposition Zrotation Xrotation Yrotation
			JOINT LeftAnkle
			{
				OFFSET 0.000000 0.000000 -18.979500
				CHANNELS 6 Xposition Yposition Zposition Zrotation Xrotation Yrotation
				End Site
				{
					OFFSET 0.000000 -9.264000 0.000000
				}
			}
		}
	}
	JOINT RightHip
	{
		OFFSET -2.092400 -0.058102 -2.581200
		CHANNELS 6 Xposition Yposition Zposition Zrotation Xrotation Yrotation
		JOINT RightKnee
		{
			OFFSET 0.000000 -0.000004 -18.665001
			CHANNELS 6 Xposition Yposition Zposition Zrotation Xrotation Yrotation
			JOINT RightAnkle
			{
				OFFSET 0.000000 0.000000 -18.566601
				CHANNELS 6 Xposition Yposition Zposition Zrotation Xrotation Yrotation
				End Site
				{
					OFFSET 0.000000 -8.497601 0.000000
				}
			}
		}
	}
}
MOTION
Frames: 8
Frame Time: 0.041667
67.395111 3.750599 45.527397 2517.627836 -1.896928 -14.848181 -0.153499 1.163101 7.852409 2.153874 4.409095 -11.643645 0.000009 0.000006 3.343305 5.431098 -6.892656 1.011256 -0.000002 -0.000002 7.785500 -45.031014 13.551746 37.608774 -0.000005 0.000008 2.173899 -1.410914 4.507103 -5.659172 2.676289 -1.652401 4.938295 10.360348 7.012868 -15.749025 4.298991 -0.000001 0.000007 -388.015233 -13.579990 273.718902 0.000016 -0.000009 -10.245108 331.231007 688.370070 608.027593 0.000004 0.000015 -12.703288 1063.713990 -374.279176 421.388029 -2.534595 -1.686399 5.195001 -12.851336 -3.452764 14.313395 -4.144104 -0.000000 0.000003 267.565339 202.319219 -20.374108 0.000008 -0.000005 -10.116489 -448.966721 -359.873187 -401.392514 0.000008 -0.000003 -12.937790 -1831.481567 -30.993438 -26.656022 2.175592 0.064494 -2.662898 -1098.193441 -0.052111 14.084060 -0.000007 0.000006 -18.585802 485.146916 -185.163901 -169.188772 0.000004 -0.000005 -18.979504 751.004981 -4.797193 -656.265667 -2.092405 -0.058104 -2.581189 1611.571332 9.698526 -63.800476 0.000003 0.000002 -18.664999 -1403.178217 174.830877 -632.644797 -0.000011 -0.000000 -18.566601 666.329924 14.586998 -373.664350
67.291008 3.709995 45.526493 2517.984755 -1.948821 -15.092640 -0.153495 1.163107 7.852399 1.799971 4.494217 -11.481347 -0.000004 0.000003 3.343301 5.575979 -6.873081 1.021719 0.000006 -0.000004 7.785505 -45.079768 13.429285 37.689209 -0.000003 0.000002 2.173903 -1.443054 4.466842 -5.656571 2.676306 -1.652397 4.938298 10.127011 7.209492 -15.541691 4.299003 0.000000 0.000007 -387.928735 -13.403153 273.235926 0.000010 -0.000003 -10.245110 331.562709 688.492904 608.201899 0.000001 0.000005 -12.703299 1063.604489 -374.396792 421.027887 -2.534587 -1.686403 5.195007 -15.973475 -3.327519 11.218476 -4.144105 -0.000006 0.000000 271.438985 199.518131 -19.337130 0.000004 0.000005 -10.116492 -448.289740 -360.025610 -401.275745 0.000002 0.000001 -12.937792 -1831.334800 -29.180542 -26.968350 2.175607 0.064497 -2.662906 -1098.259667 -0.098329 14.201490 -0.000009 0.000004 -18.585806 485.059162 -185.234758 -169.024547 0.000002 -0.000006 -18.979504 751.095850 -4.685562 -656.392654 -2.092391 -0.058097 -2.581204 1612.280579 9.003670 -63.824587 0.000001 0.000001 -18.664997 -1403.609229 175.344753 -632.630153 0.000005 -0.000002 -18.566599 666.225340 14.559219 -373.851798
67.176598 3.672306 45.526794 2518.318068 -1.974887 -15.244472 -0.153512 1.163103 7.852396 1.480301 4.552560 -11.371752 0.000008 0.000003 3.343297 5.753128 -6.832923 1.030765 0.000010 -0.000002 7.785501 -45.129297 13.346793 37.748649 -0.000005 -0.000002 2.173912 -1.518873 4.393784 -5.647605 2.676291 -1.652400 4.938302 9.921506 7.367905 -15.407320 4.299000 -0.000004 -0.000008 -387.834069 -13.279566 272.911301 0.000002 0.000000 -10.245116 331.788242 688.651856 608.278397 -0.000004 0.000003 -12.703293 1063.521652 -374.502906 420.662499 -2.534592 -1.686403 5.194998 -15.565803 -3.161361 11.140910 -4.144113 -0.000001 0.000006 271.503571 199.534537 -19.147998 0.000006 0.000003 -10.116488 -447.652074 -360.209997 -401.172964 0.000003 0.000002 -12.937801 -1831.239505 -27.779938 -28.078776 2.175574 0.064497 -2.662897 -1098.206992 -0.155484 14.226858 -0.000007 0.000002 -18.585804 484.985341 -185.349136 -168.779862 0.000012 0.000011 -18.979498 751.082790 -4.643008 -656.680560 -2.092407 -0.058103 -2.581201 1613.093645 8.218027 -63.752453 0.000000 0.000007 -18.664997 -1404.203292 175.528075 -632.599335 -0.000009 -0.000007 -18.566612 666.376533 14.636165 -373.792484
67.052498 3.635300 45.527298 2518.635207 -1.988830 -15.380524 -0.153498 1.163105 7.852406 1.179578 4.597377 -11.259354 0.000004 0.000004 3.343303 5.939610 -6.780183 1.040294 0.000006 -0.000006 7.785498 -45.189508 13.287860 37.841188 -0.000001 0.000005 2.173901 -1.573290 4.328473 -5.709762 2.676296 -1.652401 4.938290 9.824070 7.437802 -15.358920 4.298998 0.000007 -0.000012 -387.795356 -13.187675 272.783685 0.000012 0.000004 -10.245105 331.912715 688.869220 608.274682 0.000001 0.000006 -12.703300 1063.550394 -374.559596 420.274927 -2.534604 -1.686403 5.194996 -15.399777 -3.106304 11.067802 -4.144104 0.000001 -0.000010 272.061816 199.699486 -18.976074 -0.000004 -0.000008 -10.116495 -446.732839 -360.452551 -401.142146 0.000012 0.000010 -12.937805 -1831.589429 -27.719930 -28.336095 2.175597 0.064497 -2.662899 -1098.134975 -0.229472 14.234588 0.000011 0.000003 -18.585804 485.005832 -185.475235 -168.484156 0.000002 0.000007 -18.979500 751.109018 -4.634822 -656.856834 -2.092402 -0.058099 -2.581189 1613.934468 7.420158 -63.646817 0.000001 0.000005 -18.665003 -1404.849264 175.657480 -632.507100 -0.000009 -0.000008 -18.566607 666.591055 14.727826 -373.648231
66.916298 3.597313 45.528198 2519.342487 -2.123783 -15.405767 -0.153493 1.163100 7.852403 0.479570 4.664303 -11.222586 0.000000 0.000002 3.343298 6.116505 -6.759032 1.051891 0.000010 -0.000006 7.785499 -45.219114 13.268989 37.922522 -0.000004 0.000000 2.173904 -1.612729 4.321523 -5.739803 2.676300 -1.652398 4.938299 9.783105 7.478902 -15.364803 4.299001 0.000003 -0.000001 -387.797323 -13.137647 272.697543 -0.000011 -0.000003 -10.245127 332.066640 689.247175 608.332602 0.000000 0.000007 -12.703290 1063.810487 -374.594731 419.883967 -2.534603 -1.686403 5.194996 -15.344636 -3.111310 10.923655 -4.144109 -0.000003 -0.000004 272.837207 199.867891 -18.831038 -0.000001 0.000003 -10.116488 -445.692356 -360.695241 -401.154987 0.000003 -0.000003 -12.937801 -1831.920666 -27.536879 -28.422920 2.175603 0.064494 -2.662894 -1098.411133 -0.270072 14.149053 -0.000015 -0.000002 -18.585808 485.066648 -185.631482 -168.129300 0.000006 -0.000007 -18.979500 751.067491 -4.531132 -657.432919 -2.092393 -0.058096 -2.581201 1614.343187 6.601718 -63.402337 0.000001 0.000002 -18.665010 -1405.537638 175.766777 -632.286020 -0.000008 -0.000005 -18.566599 666.838308 14.837068 -373.473569
66.770004 3.556702 45.524693 2519.365873 -2.052722 -15.424328 -0.153494 1.163101 7.852401 0.490128 4.683301 -11.207739 0.000011 0.000007 3.343307 6.319643 -6.728188 1.064143 -0.000008 0.000002 7.785494 -45.280944 13.260457 38.066260 -0.000005 0.000000 2.173902 -1.626440 4.358058 -5.757277 2.676291 -1.652399 4.938292 9.829578 7.468333 -15.431983 4.299002 0.000002 -0.000004 -387.883164 -13.083355 272.653502 0.000014 -0.000001 -10.245113 332.244935 689.725835 608.466255 0.000001 0.000002 -12.703305 1064.262154 -374.577437 419.478800 -2.534595 -1.686395 5.194991 -15.196563 -2.993615 10.896244 -4.144104 0.000004 0.000002 273.337887 200.106456 -18.634730 0.000006 -0.000001 -10.116498 -444.797109 -360.907496 -401.196979 0.000006 -0.000002 -12.937813 -1832.352115 -27.355268 -28.554593 2.175593 0.064497 -2.662899 -1097.989191 -0.323896 14.027069 -0.000003 0.000006 -18.585800 485.143255 -185.805543 -167.782969 -0.000002 0.000001 -18.979502 751.043831 -4.475891 -657.828688 -2.092399 -0.058098 -2.581193 1615.430771 5.841218 -63.138207 -0.000001 0.000000 -18.665001 -1406.247868 175.732475 -632.020244 -0.000006 0.000003 -18.566603 667.182714 15.012524 -373.140911
66.612511 3.514709 45.515198 2519.396254 -1.979266 -15.358628 -0.153504 1.163104 7.852400 0.497025 4.660935 -11.316097 -0.000004 0.000003 3.343306 6.521644 -6.678763 1.077654 0.000002 -0.000002 7.785501 -45.331153 13.263913 38.279495 -0.000002 0.000003 2.173913 -1.642504 4.391794 -5.784633 2.676293 -1.652401 4.938302 9.844884 7.509398 -15.455610 4.299006 -0.000007 -0.000004 -387.942478 -13.024447 272.587276 0.000003 0.000007 -10.245113 332.482735 690.323395 608.668756 -0.000008 -0.000002 -12.703292 1064.826382 -374.532440 419.063907 -2.534595 -1.686402 5.194994 -15.039177 -2.829876 10.961240 -4.144109 -0.000003 -0.000001 273.404768 200.306034 -18.514054 0.000004 0.000002 -10.116495 -444.298341 -361.067569 -401.293476 -0.000001 -0.000008 -12.937805 -1832.793072 -27.139321 -28.699915 2.175600 0.064498 -2.662902 -1097.622984 -0.364507 13.812120 0.000004 0.000002 -18.585798 485.244069 -185.996255 -167.456527 0.000005 0.000009 -18.979502 750.934602 -4.331092 -658.161564 -2.092395 -0.058096 -2.581200 1616.478468 5.138584 -62.775353 -0.000000 0.000011 -18.664995 -1406.982031 175.366774 -631.724470 -0.000013 -0.000005 -18.566599 667.730987 15.280848 -372.465351
66.448311 3.468109 45.501900 2519.421389 -1.926901 -15.283496 -0.153498 1.163102 7.852404 0.504505 4.663006 -11.423225 0.000007 0.000000 3.343305 6.699063 -6.647918 1.092293 0.000000 0.000004 7.785505 -45.337477 13.295292 38.476334 -0.000001 -0.000004 2.173907 -1.733396 4.392949 -5.353213 2.676291 -1.652397 4.938302 9.839115 7.585950 -15.444011 4.299006 0.000006 0.000001 -387.986874 -12.986894 272.478485 0.000003 0.000005 -10.245110 332.782772 691.086791 608.922785 -0.000018 0.000011 -12.703300 1065.601527 -374.496322 418.682837 -2.534599 -1.686397 5.195004 -14.974143 -2.749486 10.902968 -4.144104 -0.000003 0.000004 273.604018 200.420932 -18.473841 0.000005 -0.000002 -10.116499 -443.746107 -361.220319 -401.428386 0.000001 0.000000 -12.937799 -1833.166930 -26.866267 -28.756702 2.175591 0.064498 -2.662894 -1097.370321 -0.382253 13.586869 -0.000005 0.000005 -18.585800 485.408922 -186.178089 -167.179084 0.000001 0.000012 -18.979500 751.049131 -4.489856 -658.200359 -2.092403 -0.058096 -2.581196 1617.468791 4.481357 -62.386634 0.000005 0.000006 -18.665001 -1407.723626 174.872077 -631.328701 -0.000017 -0.000007 -18.566601 668.355484 15.611970 -371.645401
